<svg version="1.0" xmlns="http://www.w3.org/2000/svg"
 width="189px" height="70px" viewBox="0 0 924.000000 636.000000"
 preserveAspectRatio="xMidYMid meet">
<g transform="translate(0.000000,636.000000) scale(0.100000,-0.100000)"
fill="#000000" stroke="none">
<path d="M4226 5114 c-334 -66 -612 -300 -731 -617 l-22 -60 -70 -18 c-212
-53 -421 -196 -549 -375 -53 -74 -125 -225 -147 -309 -79 -295 -5 -634 187
-859 l44 -52 -19 -70 c-94 -338 12 -708 273 -949 121 -112 265 -191 436 -237
61 -16 107 -21 222 -21 80 0 165 4 190 11 l45 11 70 -68 c189 -182 409 -271
674 -271 207 0 381 52 546 163 79 53 196 167 250 242 41 58 111 191 133 254 8
24 19 32 54 41 219 55 403 169 533 329 197 244 266 540 195 841 -26 108 -113
284 -184 371 l-54 67 19 68 c128 459 -115 949 -563 1135 -129 53 -230 73 -378
73 -74 0 -155 -6 -180 -12 l-45 -11 -70 69 c-183 176 -421 271 -680 269 -60
-1 -141 -7 -179 -15z m336 -279 c85 -18 189 -61 261 -109 l57 -38 -20 -28
c-13 -18 -152 -102 -417 -250 -219 -122 -408 -232 -421 -244 l-23 -22 1 -522
c0 -287 -3 -522 -7 -522 -5 0 -75 37 -158 83 l-150 82 -3 468 c-3 527 0 554
67 692 105 218 282 358 516 410 80 18 214 18 297 0z m974 -315 c126 -33 226
-91 330 -195 78 -77 98 -104 137 -185 51 -106 77 -213 77 -317 0 -103 -4 -111
-49 -103 -21 4 -202 100 -407 217 -437 249 -425 243 -462 243 -19 0 -175 -83
-477 -256 -247 -141 -455 -258 -462 -261 -11 -4 -13 28 -11 178 l3 183 275
154 c585 327 613 341 753 363 72 11 204 1 293 -21z m-2092 -395 c14 -21 16
-78 16 -492 0 -352 3 -474 13 -492 8 -17 151 -103 464 -280 249 -140 449 -259
445 -263 -25 -25 -298 -169 -312 -165 -33 9 -785 439 -839 481 -214 162 -319
473 -251 740 51 201 210 393 393 476 53 25 52 25 71 -5z m2110 -411 c210 -119
399 -229 421 -244 64 -44 170 -162 210 -235 155 -277 115 -611 -102 -845 -57
-62 -163 -138 -229 -166 -37 -15 -38 -15 -56 8 -16 21 -18 56 -18 491 0 383
-3 473 -14 495 -11 20 -125 90 -465 281 -248 140 -448 257 -445 260 15 15 291
170 303 170 8 1 186 -96 395 -215z m-727 -210 l203 -115 0 -213 0 -212 -205
-113 -206 -113 -204 117 -205 117 2 211 3 212 200 112 c110 62 202 113 204
113 2 0 96 -52 208 -116z m578 -328 l150 -83 0 -489 c0 -485 0 -490 -23 -564
-78 -249 -253 -424 -502 -502 -62 -19 -97 -23 -205 -23 -172 0 -265 27 -413
122 l-53 33 20 29 c14 19 152 101 432 257 226 126 415 237 420 247 6 10 10
225 9 537 0 286 3 520 7 520 5 0 76 -38 158 -84z m-375 -659 l0 -182 -392
-217 c-216 -119 -412 -226 -435 -237 -136 -67 -345 -85 -497 -42 -135 37 -229
93 -332 196 -78 77 -98 104 -137 185 -51 106 -77 213 -77 317 0 103 4 111 48
103 20 -4 217 -109 436 -235 376 -214 402 -227 440 -222 30 3 163 75 486 260
245 140 448 255 453 256 4 1 7 -81 7 -182z"/>
</g>
</svg>
